<mxfile host="Electron" agent="Mozilla/5.0 (X11; Linux x86_64) AppleWebKit/537.36 (KHTML, like Gecko) draw.io/27.0.9 Chrome/134.0.6998.205 Electron/35.4.0 Safari/537.36" version="27.0.9">
  <diagram name="Page-1" id="-CFvdxWWmML-k5VrraAH">
    <mxGraphModel dx="1426" dy="875" grid="1" gridSize="10" guides="1" tooltips="1" connect="1" arrows="1" fold="1" page="1" pageScale="1" pageWidth="827" pageHeight="1169" math="0" shadow="0">
      <root>
        <mxCell id="0" />
        <mxCell id="1" parent="0" />
        <mxCell id="Ndzg5L7rNcoj1idZ39pX-1" value="" style="shape=image;verticalLabelPosition=bottom;labelBackgroundColor=default;verticalAlign=top;aspect=fixed;imageAspect=0;image=data:image/png,iVBORw0KGgoAAAANSUhEUgAAATkAAABaCAYAAADD9iGxAAAABHNCSVQICAgIfAhkiAAAABl0RVh0U29mdHdhcmUAZ25vbWUtc2NyZWVuc2hvdO8Dvz4AAAAodEVYdENyZWF0aW9uIFRpbWUAbWFyLiAxNyBqdWluIDIwMjUgMDc6Mzc6MTar5/SyAAAVGElEQVR4nO3deXxU5b3H8c85s89k30jIzhJCEgg7yhK2AIKCgKJo1bq1dbkq17X1tuptb621L1/eLra91Xur1q2oIAKCssimLCEga0hCEiAhJCH7Nvs5948ECkEloBgZfu+/MnPm9ZznLM/3PM+TM3MUXdd1hBAiQKk9XQEhhLiYJOSEEAFNQk4IEdAk5IQQAU1CTggR0CTkhBABTUJOCBHQjIePVfV0HYQQ4qIxBtltPV0HIYS4aGS4KoQIaBJyQoiAJiEnhAhoEnJCiIAmISeECGgSckKIgCYhJ4QIaMbWdmdP10EIIS4aRX4ZWAgRyGS4KoQIaBJyQoiAJiEnhAhoEnJCiIAmISeECGgSckKIgCYhJ4QIaBJyQoiAJiEnhAhoxnN+wlPF9c/sYd8VI9gxO4Kgzrfd+/eQlB9NyW1xp94Tlw+t/gteerueSfdMJsvg5khBFY70ZKKUnq7Z5cLJ9sVvs+SIHwBd10FRUAAMCcy7ewYj7Sc/q1OXv4y/1g/jp1MTMPRQjXvKuUMOwGzBvbeIP4wczZNxchaLLvwn2LG1jIy0ZKIutxbUY2yMmncnowC0Kpa/ugGums81vc8enOk6hGdPZ6FmusgBp6PrCsr3LCK6F3JqOA9P8PLiymP84I4EkrtuhN/Ju8v28nSBC48OEampvHJ9IoPVOu75bSmh44M4VNjMwTqdaTP7k1F8lPcq2yhTYvjLHWlMsUPb8QoeWlzGuhYwWRzcdE0WT/U3y3j6+05vZvvKjXzR5KHorbW0zJ7MEE8hH675gkPtoJrDGJozgdxkG3pNHn9Y7WZIkovSykZqPZFMnpBI1e5iyuub8PQexe25fQj11bJl9SY2HXejazq23oOYNzWLBHNPb+ylQqc+fzmvnIglra6Ioym53GTdxt86e3I0FLH4ox0Ue8xExGeS7smjLPVGbs8001yyhbfWl9FiCiIhow/mvaVEz5nNhDAnRVs2suJAA17VQFBCNvMmDyDW6GHX0nfYG5mBs6CYmKk3MFnLY9GmMup9OpohhEHjJzKzb1CPteXurVeHxJFp3NFWytMHvHT9Rn/zgWIeLAvntUdzOPT4EGbWFPGLPR50wKA3s11L5K27R7N2oon/fbcU5/hsPr5/JI+aK/jjQS+6v5nn3ymhduRwCn46nvz5IXzyXiHLXV9dpV0FxewqKL7gDRffEiWEkZOGkGxJZs7NUxgVXMf6Vfm0Zc3k0bsWsHBaNEWrt1LgBhQFvb6K9r4TuPPGa7k6qpwPNjYy+KoZ3LtgNNEl+9jTrOMq3cUa90DuvXMBT9x1Lbkh1RTW+Hp6Sy8pqkGhrbyRuJkLeHBszGkN3cWeTVup6jONx+64jlsHNPJFmQ9VVVF8x1izroK4qfN57LaZ5PjK2NeqYFChrfBzFpWGMeeWm3j89qsZ693J+zsb0FBRVR9lVWauuf0m5iY1sO2zcnpPnc8Td93MIzNTcJZV0tCDPwPS7ZDDEMzCGdFsX1XKZ94zF4dkZVF0f19GmgBjEOMSjFQ1edBQQLEzZYADCxARYSMiMoJJkSooJlIjDDS0+vDV1bKqLZJ7htmxAEHx8cwPrWf5Ue1Lq9PmdLFs/RaWrd9Cm/NrklB857TGcgrbE7hiYAhGwBzTn8HBlRQc7ziWqj2O9FgTYCA81E5Q797EmwBTMJF2N61OHYPNhqn+KLvK6mjR7GSMn8KUhO4NOkQHBSA6mcHhXQao/joOVztI7xeBCQVH0kCGRHYMzbSGKsqV3gyKN6NgIn5wGkkKgI/DpZVEDswgxQqoDjIzetN0uIImHRRFISolhTgToFhwWN0cLizjcKMHY0wW83PTiOzBIex5nTnBffvydOxWfvZZPCujO3ck4G9p4E8rSvmgxofBoNBc78U+tnOhomIzdf6tKhiMKpZ/vURHR3N6aWiv5u7f1XNyROL1aIxr1/iyHD493Jat38KCGZPOZzPERaS73DhdZbz76rFTJ5ffq5Hq8oEDMBhPva8oKkbjyUbYMZejA6ak0dwxfjef5q9l/UofUf2HMmfiQHrLcPW8GCxmTGe968HpMRNj6Wy9ip1ge8ffutuD22zBenKRxU6wCcBHu9vLse3L+e2uzmJ0Pz67gzYdQMFmNXfkgRLMlTOnwLY9fPjuZzSa47giZyy5qT03XD2/y6Ni5vrpyfztb0W8OenkJKafTz7ey5vWQXz6QCTRqsYn723kF+dRrGozExkUx18fz2DyOWZGuw5TdxUUMyAlgaED+5/XpoiLQ7Fasdv7Me+OcfTrciy1E90txUSvtBEsSBuB5qrl85WrWLI7jntHhskc7Xn5su6TCYvJi8vT+VJ30tLeMZZUTEZMXi/uk4s8Tlq9AEYcVjOJV87mx0OCupTqo77LGlRHHGMnxzF2so+G0m28+skOEu+ayMAe6oyf9zljiErkuWEufrOxgY5ZEp1Gp5/ISDsRKrTXVPKPMj9tHu2subuvLjOSafY6Xjvgwgf4Wuv45aJDrG4/83Mnh6ldybC1hxlUVM2LywdqWAJp1gryS9rQAK29gjUf76Co24dHpyp/FX/fWoNLB9UaQkywCf3LZy7E+VLDSYhsoaisER/QXnGQPfV656Jo4ryVFFR5AR+Ve4s5qgMYSe4TR/3BIiq9AD5q9n3G+/sa6XpYdNcRPli0gV3NGmAkJDIUBxpaD87JXUC2qoyYkMa0XTt5s3MHzBibzCvvbiM930pKYgJPXxXHj5bsZWFiN3tXagiP35jKQ4vzGLBCR8PE2JxMFtrO/NhXhdnJ8JNha89QrLEMjMtn6WtLqZs1i4lXDeHDNct5fpOGjpWU4eMYZwVaulUavdIz6f3JBl582YuiqNhi05k9Tnpx3wrFwdBxwzj40Qqe3+8gJnEgmQkqFQDmZHLHH+bN5f/kd/ZQkjOTGGA5Cgo40sYwr3Yji15/G4+mY4zow4xpIahdYk6xxjM6vYzF777FSk1FNQaTPiGH9LPHzd8Z+flzIS47p9/P5mTb++9Smv0Dbupn6FhG503FvsO8/fIB+tw2k9GOHq3wNyIXRyEuK35K1y/ihbXltOngayhhX204SdEq6PWse+tt3ixoRUOj6VAJhx3RJNjOXer3mfTkhLjMaC1HWPnxFnbV+VGNDvqPzmFOVgQmoL1iJ4vWHqDCo2C09mJMbg7j48xf+i+MS4WEnBAioMlwVQgR0CTkhBABTUJOCBHQJOSEEAFNQk4IEdAk5IQQAU1CTggR0Iwl5ZU9XQchhLhopCcnhAhoSlWbfONBCBG4pCcnhAhoEnJCiIAmISeECGgSckKIgCYhJ4QIaBJyQoiAJiEnhAhoEnJCiIAmISeECGjfwjOtdQ5/vp25tX3ZPjuSY7t2c9Mn9ViGDeUVRxHza/uyfVYQr7+6iWcqwKCAoqiEhodx/aQMnhhoowcfySgukL+2jFmvtPDAo4OZYfSSv6eB8KwY+shl8zvi4a03NvJEacdzT3VdB6XzUYKGSJ5fOJybTj1G8PQ2GnXZtbdvIeQUEkcOY41mwITG7qI6kqeM4+0RFjTvyfc9gErutRP4+2Aj6H5K9+7n5mVFDE7NZra1e2s640CK7w9fE29vqGZ6xncXcnr9XpauLqDh5JcS/S5abYO55dpYCpZtpPDUM8h9OFvDybllBlndPM8uDWZuviWXmwH8jTzz0l6UueN4OvHs1qHpnNZGLyYdTVdQu9FA9bajbF6fR0mbjqIphKWNYfqwOKy4KM/fwPriJjRdxxw7hGk5A4g0XHitvj7k/I38518OErFgNA9EKbTs382IpTrPPTyEuVado1vyWNDYn9dDi5hf24eXww/zX6V+mo/tYF5LJr+zFJ7qyZ1BMdBnYAyDVhyhyqmDVaH52BF+9tFRdrpAUa1MmpDJM1l2lMpipi/3clVkA2+1JfDeFA8/WeHjhn4eNpS7qGiGcVOH8Kt0C6ruZv36/fxydysuVSUqOZXnZ8b36NO7A57u5M3F+1na4GPDy7s5sWAwczzH+PnyMja3gtHsYN60LB7ua0Y7XsxVy3zM7ePh8/JWylwhPDQ9ioN5leyqa6M9cQCvXdOLOG8zf1+2n5crvGgahCYm8/ysZLIt/1qtEjGIOTcO6nzl4/i2j9gW3JcwQzBj5tzAmM4lrqMbWXIokb4BFXDn0tk2q8KZdKKS/H5DeMl6kOs7e3LUVvL44mI2uk0kJycyxXWIbWnjeG2IkaqDhdz7cTU1JiuDs2Nx7Kyi782juC/C8xVty8fidzayPCqJpr2V9J81loX+Qzy4ppqjPvAbbFydO4hfpFv5V05pVBXspjE5l1uzQjG4j/Lxe3ns7zeLIS35fFIWwdXXTydWbWH3yqV8XpbKrH7mC94bX3/dNQQzJt7NzmM+dDT2HnXSL8ZN/nEN8LOr3Mnw1ODOpFTIHj+MJ1MNjMkdzZJJoV+doJqPwj1V7I+KZlyoAr5Gfr/kCOrYUWx+YDyf3hBN4aoDvN2kg6pAfT3V6cPJuy2ZZIOCfqKOw0kZvPHD0SybYmPFZ8c5qkHdvgL+vcjBsz/J4fN/G8Fd3hIe3dqK/4J3jzgnxcbNM/swzBbDsz/K5uaQFl5aUkL90OFsfmg8q68NYf2yQla7AEVBr22gIS2TN+8YzVO9anlydRuz5g7ngzsH0LfwCB826jQXlfLfrkSWPJjD1odG83BoI+uOf/VR1BoPsLkqgbHpwWf28n015OW3kzkyhUv8+cjnzWhQqCtrI/268ayaHHJawHj4cG0hB9OGsvmBK3kls40lh/wYVAXFW8cLK2vJnDWWz+4bzj2+ala0KJjUr2tbCkZVY9sxI8/cn8Nzfdp4/dNasmaNZetDOWy4Loam4nrKtdNrpxI3YhazskIxAD5XGy6Dg2CzgiF2BAuuGUqsEVDthAWpeL3frAWfY3BhYFhKMIUVLfi0dvKqbNyQbeVARTt+fzPbq4MZl9jdfqTGumUbSH9uLQN+s47c1e1MHBNHXxX8dXVs9ERyXZoFA2CJimVmVDObyjs2TjGGcdUA66nQVOwRzEg1oQD2cDtR7W5qdT95RQ0kDUpklA1QrczIjqDyUB2V8jsr3xl/fS3r2iK5bbAdM+CIi2dWSD2rKzrOctURzpR4I2AgMdxCVGIEg8yA2Uayw0tdO5jtZiy1tSwubqFGszB9ajb/nvJV55mbsl2HCMnOIvqMs1mnpXgnR2OHkhF8+U1wKACxMcyO7NLE/S3kVVrIHRiMDYWI1ETmRHcs8tU1skuJZEayEQUj2SN6M1wB0M7RthT69I8hwwwoJqJsXrbvr2Z7vQ9zXDIvzupNypclje8o6/75Bv+zeD+OUaPpbwUMFhzWjpbubyggvzqWrJRvdok655xcWHIEvXY2UtZmZqcaylOpOsvWNFFX52ZPUAQ/snd3VSqTZ3XOyaHTUlfDs4vyeES5ghcdXlotJkJP7gjFSKhFp9nlRwcUi5GQ085TxahyavShgIKOjp9Gl499m/O4YnvnhzU/3iAr9Tp8yVSFuAg0l5cmZzWP/Kn+1PyP16sx2qlBEGA0cHLgoSoKFuOpg45BAR9g7TOAf+SW8afPd/PnxX5SM/ry7PQEsixnrQ69tYTdtb25YkKX4YzewP4CD2mTY76NiedLkslqPLsHq/tochvpf3JfqhZ6OToah+7y0m4xEtrZVhSrhRgTcI62BRBiNXb0mBQbt80bjL7pME+9WsAxazi3Ts3gkf6nD1c7GZOYfOMt5DQV8fGqT9kZcQ3DwzrKd9fsYeWGChIm5JL2Dbvh5zz+hrBwhntL2VZioiY2nqRwyGipZNMRN+6kfiQoUHHeq1UIjoxhfr9i7i5pwT/KRLDLRaNGR99S99LgUgizGU8NP86dUQbCbUaGThzNolFWuTemh6g2M+GOOJ5/IINxXc5qX1V3SzEwILMff8zsh9/ZzP8t3snP8sL5YJyjS0PRaT1ymOb4YcR2OeB6w2FKlCRmhMrV7QyKAYfJT7On87Xmpqatc5HZiNXjo7UzuHS3h1ovfH3b8nOkyyqMwRHcNTOCu2b6qSgq4odLixn60CCmnpob99Fw7BjuiCRibQrG0L4MiNrKvhovw8PMuKt28MHmJjJzp5EV/s0vUefOAjWYMfFOFu1oJjUhGJMhmOFhzby228mwlKALvErqtDfW8v4hN31i7Jijosix1rG4yI0fcNYcZ1l9GJOSzieqDIxIi+DIvmPs9wD4Kd5ZwGM72/BdUB1Ft6kKRr+PZh8YIiKZaKtjUaELH+BrreOFDw6xwdndwnQObtnJrRsaadbBYLPTP9SA9qVTDn6qq+qJjIk460R2VlfjjIxCMq4LNYjsGCfri9vwAI1HjvFhbcfONUaGMNBTz5pKP+BnX34l+TqA2u22pTtP8B+v7mNxowYY6BVtJ1LR8Z9x/HQaiz9j7b5avADuasrrrESEGqG9hLWb6smYNulbCTjo1i0kKsOSbRz8wsuc+I7raHa8yu5DNu6OV4HuTnhprFn6KSkfgoKCyWrnyiGDeGGEDdVg46E5Kfz0o+2MWwsYbMy8OpPrgxVo6/7GRGak83zNfhb+ZSNtmo4lKpYnZ9sv2+HKd0WxhZObUMLPX9rGkRtHcf/cVH6+PI+xq3U0TIy6MpMf24CmbpVGWlYSmR/uZ/KLPlRFIax3Ir+a3LUXB+gumtuMOOxdj7BGa0sbNoddevRdKVbmTenLusU7uHKXhf6piVyVrLAHwBLNw7k13LNoE6uCHIwcEsVk6wlQvq5taWcWb4vglkFVPPbaRn6tqRhMNnKnZTLljNkEEymjcji+YSNvvKOBbiAyfTzTeim07DvAoZYWTqx6n50dJRLUfyJzh0Zd8LGUnz8X4rJz+v1sHt74x2Y+HzGRPw/s6LRoKB2B4q3mvhfLGXPfCG4J+toCv9fkQifEZUVjy6rNTFxRS70OnroqVlQHMzxWAa2F37+8iXv2uPChU3Wwiu3BoWR3+5+L30/SkxPiMuNvPsGvlxxkSa2GYrQwYXwWvxkWhBVoOFzCwhXl7HErmOyh3HlNFj9JMF7S3zKSkBMX5IX1h77zdT4ysd93vk5x6ZOQE0IENJmTE0IENAk5IURAk5ATQgQ0CTkhRECTkBNCBDQJOSFEQJOQE0IENKPB3a1vTQshxCVJ0XW5GVgIEbhkuCqECGgSckKIgCYhJ4QIaBJyQoiAJiEnhAhoEnJCiIAmISeECGj/D75vxRr+XpHJAAAAAElFTkSuQmCC;" vertex="1" parent="1">
          <mxGeometry x="130" y="260.13" width="243" height="69.87" as="geometry" />
        </mxCell>
        <mxCell id="Ndzg5L7rNcoj1idZ39pX-2" value="" style="shape=image;verticalLabelPosition=bottom;labelBackgroundColor=default;verticalAlign=top;aspect=fixed;imageAspect=0;image=data:image/png,iVBORw0KGgoAAAANSUhEUgAAAJwAAABFCAYAAAC/iY+qAAAABHNCSVQICAgIfAhkiAAAABl0RVh0U29mdHdhcmUAZ25vbWUtc2NyZWVuc2hvdO8Dvz4AAAAodEVYdENyZWF0aW9uIFRpbWUAbWFyLiAxNyBqdWluIDIwMjUgMDc6Mzg6MDVzloQfAAAIFElEQVR4nO3cfXAU9R3H8ffu7V2SuzwRQp4JhAQxQAzPCFFAalqgWKGAUgsCIgztKBZnqq1AURSUBkeZMFqCGERaKQ+OCAMVRLAlRUDKCGgRyAOG5C4hDxByySV3e9t/sG14CAnkdq+932smf2Tv97v73u7n9zCX7El9eg/UEASdyEYXIAQWEThBV1JoaJhYUgXdSJqmicAJuhFLqqArEThBVyJwgq5E4ARdicAJuhKBE3QlAifoSgRO0JUInKArEThBV4rRBehtznsF5BecQ0P8Ra8jSEjMykpj7YysNrUPuBlOhK1jaWjkF5xrc/uAC5wIW8drzzkNuMAJxjJ+D6epOGsvUlpdzxWXG00JIiw8iuS4SGwmo4sTOprBgdOoKfyKglIX3v86anc4KCxP4N7+3Yk2fkgIHcjwy6l6ZcLjutEzPpJQRcVZU87XxTU46x2cdsSRlRSMZHSRQocxeA8nEdGtN/enJ5IQaSM8NJz45DTSO5sAjcbGZv/Y4sshjHgwi31Lp1L31uPUrZzAnp/3YrC1A19DsjBsaFfuas8VUZJYt3Isz0RLt9ffAIaXZwmyXFOEF4+qARJWa5AfzG5msiZks+1+mT9v2EnS/D+SsvIon0ZmsHNe+nUXWJZus2JTF2Y91L19gfGUs+Clz1hbrd1efwMYvqS25KXeXsTpWi9SSCw9Y40PnByZwqIRsHplAXkXru40HWXkrDtAySAzTbJEyugx/CW5gj3xqQw9tZ/hHzsZ/ZMscu6NJMSrUnHmFL/401lOuSEytS/vPNaL/sESslrHB5v/xqKvFZ54cjiPRpvJfmEksW/9lU3BPVk1LYPRYeBuusQHW//O0m8aW+x1URJ4Y0kGJ1YU4JzUtv5y8gCOTLew6Z/BjEqNIC2khmWby8gYlcrguHBshceYsLGECz5aWvxoPHipt5/l0Lc1NJkj6ds3hRg/GA6WbrEMrC3l4/IWlxrNVcXmg3bOe8CjasT0iuDk2g8Zsr2KToOH8m7GZZ5+ZSt3Lf6E1ZZM8h6MxCR34qmf9UHau5ueC7cxdEczMx7pzSDpCus2neCws5Snl3/Outoonnsik+iDe0lfuI2B71Xzw+mDGB9ykyK1dvT3ashxsUSdKGBczi5+XZbI6skRbMnfy8gVX3ImM50p0b4b5n4TOE/teQ6fqabREsU9/e6mR6h/lBZiDcLidFHdyojXAEpL2XJRBUwMvyeOosOnOegEvA18dMhOUt8Eumq1vLriQ6YfacCLRlVRBWfCbMRf81ZNMYmMCSvnD4fraALqvytkS20843u07Zzcqr96xcHuYjegcr6qkcpCO/9oAprqKboSRBeb7wLnB3MIgJvy0grqNYXEtDS62/wjbACNDU00h1mJleC7VkLX3NhMgwZIZqKsZvqPHcO50Vc7yCYsdQ1ESwphgwawbGQMcZIXjymEu02V120bZGsQnWzdeWdpPM1Xj5ktEgdtCvz7yM212v8y4FZpunrc6/XicqtXf9NQNVB8uI/xj8BpKs1uDTBjDfGvT3ubSir4MrIPj6R8xdFCz38eCIphwcQufLH9G0oBvr+9V3NTXe/myI5dZO93tthzmWL6cmByBJtzdpHrUJGj+7B/UefrXtPrdFFdV8S8xYf4zHPdw7fUWn8lqf3P15H8YyqRgohJSiSta2dCW26LDaddLmbZ5yqzZ4/g2fQwIhUTUXGJ/HbuSBZENWF3XdtD5dBJBz0Gp9EvCEAh/b6hrLkvAnOIhXC3k3O1KsjBjBqeTC9FwWYGVA2PyUyEBdTKMvY4E5iRaUUBlPAEfjezP9m2Vgq90/468Y8ZDonw2GT6xBpdx424KfhoLw9f6seiR8exuIsFta6WA4eP8qPdJZRoEtdOGhePHWFewnDeXTKZUFnC5SjmhQ1XcF06x+tnH2DNSxOprL3Mzp3HWVE0gpfn9eZUbhk7i/ux6sUf0+Pt3fw+/ySrpo3h20kysuai4NMveLPh5lVqzoq29e/ky3N1a37yVQ9eLpWe4XiZC2tCKgOTw3w2Ekxz1/vomQObmjezTe38Y0nVGrHba6lrbKDCXkO9HwwBwTf8Y0mVbKT0TKbZ0YQ1Np4Ioz/tFXzGPwIHBHdKJNPg/YXge/6xpAoBQwRO0FXABU4y/N8B/v+055wGXOBmZaWJ0HWg728TbHN7//gcTggUATfDCcYSgRN0JQIn6EoETtCVCJygKxE4QVcicIKuROAEXYnACbpSSsocRtcgBBAl1Hqzu2sFoeOJJVXQlQicoCsROEFXInCCrkTgBF2JwAm6EoETdCUCJ+hKBE7Qld/cef+/ytnoIpDvQ5IkCVtIcJvbi8DdAWeji8SYaBTFv75EUU8ej0pZZVWbQyeW1DugaVpAhw1AUUztmuFF4ARdiSXVR958O4+16zfibGjlaytvQJZluid3ZcOaXJISEnxUnXFE4Hwkf+MmwsPDmDNjWrv6XSi3s3X7Dnbt2cfcmdN9VJ1xROB8ZOqkCazJ30BMl2gem/LTNvWpr3cyZeYcwkJDGZv9Ax9XaAyxh/OR5371FNkPjGTxK6/xyb79t2zf3NzMk/OfpbC4hLxVK+maeOPldPLjs+mROYTUa36qqmvIW/8+zy95GYCMYaOwV1QCsHX7jo57Y3dIzHA+YpJlcnOWM23OL5n//ELeX7OaIQMH3LCt1+vlmd8s4six4+TmLGfYkEGtPvfry15k4vhx1x2fPnUKqkdtcUzTNF57I5fJDz/U5tpVrxeT7Ju56F9tQNHlcK1xtwAAAABJRU5ErkJggg==;" vertex="1" parent="1">
          <mxGeometry x="280" y="340" width="156" height="69" as="geometry" />
        </mxCell>
        <mxCell id="Ndzg5L7rNcoj1idZ39pX-3" value="" style="shape=image;verticalLabelPosition=bottom;labelBackgroundColor=default;verticalAlign=top;aspect=fixed;imageAspect=0;image=data:image/png,iVBORw0KGgoAAAANSUhEUgAAAegAAAEGCAYAAACuHgb+AAAABHNCSVQICAgIfAhkiAAAABl0RVh0U29mdHdhcmUAZ25vbWUtc2NyZWVuc2hvdO8Dvz4AAAAodEVYdENyZWF0aW9uIFRpbWUAbWFyLiAxNyBqdWluIDIwMjUgMDc6Mzg6NDkeTA0wAAAgAElEQVR4nOzddXgU1x7G8e/sbtxDggcnOBQIEjxosGAFipTiBYpTpEDRAkWKa3EpF2iRFncJ7u6uweKe3Zn7B4ESSGiAAFv6+zzPvU/ZnTnnzJnJvHPOzO4qmqZpCCGEEMKs6D51A4QQQgjxOgloIYQQwgxJQAshhBBmSAJaCCGEMEMS0EIIIYQZkoAWQgghzJAEtBBCCGGGJKCFEEIIMyQBLYQQQpghCWghhBDCDElACyGEEGZIAloIIYQwQxLQQgghhBmSgBZCCCHMkAS0EEIIYYYkoIUQQggzJAEthBBCmCEJaCGEEMIMSUALIYQQZkgCWgghhDBDEtBCCCGEGTJ86ga8KvbKObLOvUegTkEBUPR4ZErHoHqeNEut/9TNS3mmx7QZeYOC3xWjm6vyqVsjhBDCTCiapmmfuhEvi71yjhx/WbKqR068dIAxhh1bT9L4shvbu2Sn4EtjflXT0CnvF2qapoESfzHwSaiERpgw2FpgK/kshBAiniHr2KM0qV2An3JbodPi2LXtNB0OR2Dh6EC9ojZs2a8wsUcuigY9oMuKa2wLVTFpegoUy8O8Sq64fehQMVjhUz4jJfbfZ19YVhxOH8X3ngtVH93nUK4v2F/Vmh1bz9H7WDhROh1psmVlRt0M5Nc9oe2o69h523H1WjgPgo1kLJaPxRWcsbt3Ba9VcdRxD2JeeEZ2tslI7ImLdNzxlAANdLYu9Kifl/bp9aBGs3bjWfqeDCdcZ0kJ7zzMLO9CKmLYkli9hjj27DxL98NhhGkaiqMbAxvmoYW7KfHXUz2lx/hnI+jvoq5SfKWRFrli2XIzmtshULHmF0zMZ4UuNpQpy88w7o6Gu7sb32YOZ3BQZm40dsfqA+8CIYQQH5/uUBULFq67xVEVjPdu0vWwgWFdynKmoydpLgVwHh0GRWXPnsucy1uYC/3Kca1bHko8fsyBiI/USk1DRUGvUzDoFR5di6BA07IcruZE0KkLtL5gx5Ru5bjc24vOcddovzccEwp6NYS9Rg9+b1+Cox2yove/yMzHGugUlKeBPMhXlBvtMpP1yW3abYyhaesyXOpTls3eJn764yZnVHh48iJd7rrxe58K3OyaE6eDZxl+Q+VxEvXGhTxg6EEDQ7qV48oPZdlYUsfWy+HEJPF6XIK9oaA+fMrVrHlZ/20J9lW3YeWuB1xXNa4dusiIaA+29y3DwYbO7DsRjKb/lCN/IYQQH5LOLbMznuHRPFA1HtwO5n7mNNR0VMBgR6viqeKnXRVc7C24feUBf92JJtLGlQFNclHb/sM3UIuLZtuuuxxL50YFO54FUvrUNEylA0zsvxBEtsIelLEFdNbULeLK3UtPuaMBOlt88zlgC+gcUlEtbQSH7plAAUXvTN281hiAh9eecMEjHV+l0gEKmfKnpfjTQPaEmjh4KYjs+dOSxwJ0du5M7e7NqCxakvXetbAklRrK6lNPuRgJ2YvmYXEZRywtE3/d4tUdYudKvewWKICdqy1pImN4pKkcuxlO/vypyaYHg3Ma2uW1kif8hBDiM2Yos+gWF03OaEBolBFbG4sXoWHpYBU/ha1QpGJhZvhfZ/LvB2kfYUXVsrmZUt7lg0xxmx7foOzAmyiAojOQOUt6ZnyVCU8d3AUsrQ3PLhw0E4FRRk7sPEKOffENUU3EOljzRAMUA6ls4gtV9DhYQViMCQ1QrA04KgAaQZFGbGwseL4oBgMuFkaCok3YRqnY2xhehKG1tQG02CTrfWqTmZnfGPl511Vqb4pAlyE9w+p60tg9beKvuybcdsWgw/r5P3SgaBqaZiQ4WsPJxuJFO9I6WaJ7lJK9LoQQwpwY9n6dGZ9JIQDYWeqJijFiBCyB2PAYnmrxcWGwoYZPPmr4aIQ9fkDHuecYnbU0YzOnfELr3bPi//whsQTin2d7XqWiJ5WtgeJVSrC1lHXCEaXpKbM1I4FRz1c1EhwNTtb6v1eP/38XOwui7sYSybPtJi6Op3EGitjocbHRERQeh8qzkA4LieCphXXS9QJ4ZGTM1xkZY4plz/YTNF73gAotM5Amsde/tvznDlH02FtCWLQRjWftfxQai/rPawohhPiX0u06+pBLRhMRRoX0GRxxvvWY7ZGAMZLFRwOJ1AAtmkVLj9DrYixGFByc7clmq2H65M9/6/HO7cr1k/c4GQtg4sLhC3x7OAIjgBrFxtPBhGgQF/SItQEOlPZ4/aNaabK7kf9OAMufqoDK9VMPOJrajQoOerxzOXPt1D2ORoMa8YR+s48x/oGSZL3hN69SacltzscBegtyuVthqWpEJ/F68rpQT6GMtpy5+IS7KhhDHjHvQowEtBBCfMYMezLnoG/m0/y4+Bb5W2dhbJ5TdBm/h0EuTnxZyJ0sTwDFmtql3Fi75iBZV4GFoifXF7mZ8wFGz2/LvWBuZj48R+vxewhXNazd0zKyoS0GokHvQCmr+zSYfI5rYVDIpwBtXRUISFiG3j0Ts6pH0GHeXiZooHdwY0TDTOTRAV/kZvq9s3w9difBWFCiVH7mZdPhpiVer71Der61P0eDMTeI1oGlgyv966Ujc9oYvj31+utplcBkbKVCXu9ctL92Fu/RN8mU1p0W+RzZHPkhelQIIYQ5eP1z0JqGFv+54LjrF8m3zoLVnbOT79/2RJLpKd/+fI28nYrRzeXTX0ikhL8/961xbvtB6kXk5pyfy2sPmgkhhPj3SxC7avBdaow4xuRHKmhx7D71BGNGZ7L928L5ZZ98Gj5lBJ89TZYpVzkcA8SG8fv5aAplsje/r4ITQgiRIhKc33XO6fipYiDt5+zhF03BMW0GZjV2/fvpZvHJOOfJzqhLZ2kyZhdxOj058udlbkEL+Ry0EEJ8pszuqz6FEEIIIb9mJYQQQpglCWghhBDCDElACyGEEGZIAloIIYQwQxLQQgghhBmSgBZCCCHMkAS0EEIIYYYMT4JCPnUbhBBCCPEK+aISIYQQwgzJFLcQQghhhiSghRBCCDMkAS2EEEKYIQloIYQQwgxJQAshhBBmSAJaCCGEMEMS0EIIIYQZkoAWQgghzJAEtBBCCGGGDJ+6ASJl6Nsv+NRNEEIIkYIkoD8jpl9bfuomCCGESCEyxS2EEEKYIQloIYQQwgxJQAshhBBmSAL6M5elgNenboIQQoh3IAEthBBCmCEJaEA7OIoni24k/mbUFjp4lcBn9HEiXno5dsdAinTflOC1fxeVu0vaU3LIAeJee+sqkxpVodfu2AQvm24vpn7pAWyOfXUFIYQQKe2/HdDGi4RPmEXklXB4fIywSXOICtJeX87ajZitk5l/2fjx2/iZUlX1UzdBCCHM2n/7c9D6TNhUzUn41BXEBFpg8/03WNkrry9nKEy7liHMmbCWetPqkeHVyxrjPdaNGcr43QHEqeBctCVjh9Qnt/4Q/WsswOHrbNzcd4Grd1TKd+9EjoPL2HjpFrd1FRgxtTNlnBQiL69hyLAF7HsKFrZZqfP9j3Tzdk2RK6jqX43hy9JB7DkZwL2HULrXGAb7pHr2ZtgppnWdxp8XHhGVqjz9x/XDL30yCo26xKIhI5h3KgSTScPpi6aMHPIVBe3iuLVlMv2m7OKuSY91+nL0HNqV6hl03FnUga8vfkG5a+s4UXYsqzvn+48fgEIIkbT/9ghasUVn/4g4uyY4FX1MHG7oLBJZTtVIX68LjYIXMH53CK+OscN3Tmfw8UJM+PMv/NeNpeL1KYzbEoyGgk49zwm1AVNmzWVZaweWDZ5PdIvRLF4yk29tVrNwTxia8SIz+/9KUL0p7Ny4hvXD87B7yES2hycymn8H2rVD3CzSjwVz57O6W3o2zNvEbRVAI+TIeZx7zGPnlpWMK3CM4dP3JWvaPmzXXCaHNWDFhj/x3zSPbulPs+tCFOqdlfQddYlyY5fjv2EFv1a6zvAR6whQwWCh8OTwTXKPWcNaCWchhHij/3ZAAxiyYN+pBfat22Jtl8S0qwZYeNK2e2lOTJ7P0eiEb9tXHsKeRe0oZA1YZcMrnw2PHgaiooDegzJlsmCJgnPG9Dh5FKFUJgtQnPHIYE1wUBjG2/vZFViSZrU8sATsctekVtqjbD+VMlPqinNRqhV3QgFsMnrgFvSEp/Gbqi/kS72slqA4UKJycQwXznLd9M9lWri4YHVjL2v2XuaxMRVVeoykq5c1QYf2cT5/XZrmsgUsyVqrBvnO7OVgJIACuctRM5NlimyXEEJ8zv7zgxglQ0msASiMtdubl7Ur3pYe2Vvy81I/FmX5eyrc9OQEC36Zx+brkegsFMLvhWHT9HkFllg/zyOdDr2lFVbP39Lp0DQNLTSEkJDt9PE7wvMBvDHKSLGQGCCxIf1bbqOVNdbPm6tTUNDiZwEUbJ2dsX2+nJ099pHhRGjxy7w6gNdUVEWHDrAu0Y353RcxY8EPzOwXTdYqbRjWpw42oaFEH55IDd8Zz3uHaF1WSoc8uyKwtHfAJpG7CEIIIRL6zwf0W1FcqdGlKUvbTWVNG3v0AMSwZ8pgVjsMZsWykrjqYtkzpA7j3qZYJxecU/kyct0PlH7/PH4LGtHhYTy/DNAiwomwc8Je54y7Sxz77geikvbFNEvsnVsEuLqTWg8otnhW68CEah0whV5iYd/uDFxehF+dnbAt3Ywt46til6AulQcAiqSzEEIkh0xxvyV95vr0qxXA1IUneTYTHEdoaDQuHh446SDq+gZWHY0mMir6tXvVSZaZyZvyTodYufMRRsD49CATB87CPyRl7kG/SeyJ7Wy6bwItgmM7j6IVKEQ2gwuV6npza/Ek/nc2kFjVSPDVLYyYtIe0fjXIp1e5tKgbrWaeIUwFvUN6cqSzQTVpOBcvTd6zG1h9KxZQCT3zG/3GbOeBPLQthBBvRUbQb82Sgq06U359d1ZrAHb4NPuK//3YFp8/U+NRoD7du1Wlz4ghDM3fKXlF6nPRYURLhgzrQIXxRlTFmWIt+tHW8cOONlVVw61ETu6OaYvvlYeEOZdn0LiS2KLD1ncgcyIm81O/xowIiMLSzZPyDUYwq3UODEDO6o3JO2g4VatEotPrcc5Xj8Fds2DhnJFRve7Qr8uXzIpV0exz0bjPQNLqIOCDbo0QQnxeFE177U6j+BfSt1+Q6M9NZingxc0zRz9+g4QQQrwXmeIWQgghzJAEtBBCCGGGJKA/czK9LYQQ/04S0EIIIYQZkoAWQgghzJAEtBBCCGGG5HPQnxF9+wWfuglCCCFSiHwOWgghhDBDMsUthBBCmCEJaCGEEMIMSUALIYQQZkgCWgghhDBDEtBCCCGEGZKAFkIIIcyQBLQQQghhhiSghRBCCDMkAS2EEEKYIfmqz8/Eym3+n7oJ4j+kQeWyn7oJQnz2JKA/I3LSFB+DXAwK8XHIFLcQQghhhiSghRBCCDMkAS2EEEKYIQloIYQQwgxJQAshhBBmSAL6XWiBLOtYhuyFipO9UHGyFSxGtvj/zl6sK8sDtU/dwnga4edX8UPrBhQvW4kiZSpTqlEvftnzECNA1BY6eJXAZ/RxIl5aK3bHQIp030QEEHdgJMUKlaP1mkASbJXpMuPrlSBny2XcV58vV4KcRUvhWbQUnsUqUaH1aFZfj/mYG/y6mCus23SJqE/bCiGEeGsS0O9CceWrGXu5duow147NppWHB60X7n/27yOTaeyqfOoWPhN3hol95hNWexw7d2/nuP86lrVPxcYBI1n5SH22jLUbMVsnM/+yMcli9KmduLF5N49eSmjjpW1sC3PF5aUjSJ+1BSsP7+fysf1c3reMEYUuMrTfYi6aPtD2JYPx6hamrbtElLlcMwkhRDJJQKcw7ela2pTrxJKA+ADEyPFx9akw5jjXFrWlTO/pjO3VicZNG+LTbCTr7j5Lr8jLa+jTvC6lq9elQoMeTDgQiJp0NckTfZebTz0oVTYLdjpAsSZTpe789r8B1EoVv+sNhWnX0oH/TVjLvSQq1GUpRuEH29jy8O9tOrd5L85FC2CT1LWIpTulvqlH4dtHOfL01YKjufjHEOrW9KNctZqUbzGKtXfiLxAiLzC/ZyO8qzagZvtxLJ32HV4D/Ykl6T4yXphO9a/GMHfKD3zTphWVa7Vi8M7HmEJ28GPv37l8dCZfdVzEuU94oSCEEG9LAjqFKa5lqVX4Kuu2BzwLWNNltu6FSlXyYaVTeHz4Jjn7TWX50iVMLHaaYdP3EWG8yMz+vxJUbwo7N65h/fA87B4yke3h7znssytMNa+rTOgxilkbjnDxSQyaYkuajKmx08cvo2qkr9eFRsELGL87hERr1OemSqnHrN8av03G86zf60bVMi6ob2qipqGiR69LmOLqow2MmHif2tNXsWfzCkbkOszw2YeJQeXWH+OZEv4l/9uwkj+HFeTY+tNoBgPKm/pIp0e7doibRfqxYO58VndLz4Z5m7jjUJGhPbyxK9yBZTNakE+fRDv/q4xn+aWRH42mHCXBXRktmANT2lOm0QxOJj2xIoT4wCSgU5rihI9vYa5u2ckdFYyXd7HTVI4a+S0AsCzkQyV3HWBFvlJFsLhwlqs397MrsCTNanlgCdjlrkmttEfZfuo9z466dDQct4Dx1a05s2I0TX0rUqzh94zecovo58togIUnbbuX5sTk+RyNTqwgA1/4liFo6zZuqRB3ehu701akSuqkDx8t5hF756/kTK5SeL8y5a9LXZe5WybxTWYDYEfhwjmIeviQMC2aMyevkbtiBTIZwJC2Ik18UqEDTLff3EeKc1GqFXdCAWwyeuAW9ITXBu4iIb0H3iWdODenJ9+MO/Ssv9RA/Md1oe2ci7iU9CKzXNQI8cnIV32mOAXnstXwHrOYjXcaUn7nPow+/ShkAQEoWDs5Yv18UVtbbCPDCQ+JISRkO338jmAR/5YxykixkBh48co7skpP2aY9Kdu0J1rME87uXMyQ4d0Y7bqCwfn+XsyueFt6ZG/Jz0v9WJTl9XlrizxVqRL5MxtuNMRry0EyVW2Ju3IpwTKmG4toUPw3FEDR25GhcE1GjGhE1ldzPO4+O2ZPZu7++8QaDBByh7gM3qBFERpuwsHRPv7KUYd76lToboAWGpJ0H7mBYmWN9fNm6xQUtMRnA8TfFCdK9ZjCHF132s//nuZxvWnNMgYvv49nq/HM6+aFi5k8TiHEf5EE9IdgXxI/77FM27yX6D1xVB6QJ76jNaJDw3geu1p4GOF2zjg42eCcypeR636g9Hvm8ctiH5xk600XqnhnxhJQrNwo4PstLTauYenlQNSXAhrFlRpdmrK03VTWtLHntYGTISc1K5oYsGUjDw9loca3LihXEi6iz9qClSu/o+AbR10agRvG88MhTxbMHU0he4Xw9b0o+RegWGNroxAREYmGLQoqTx8HoQKKk0uSfWS8lFg9IlkUZ7y7TWauRQ/a/TqM3jji1X4CczsVxknCWYhPSqa4PwhbSvl6E/DHBH6PKUf1vH9fBxlPbWfDfSNo4RzZcRQKFCJHVm/KOx1i5c5HGAHj04NMHDgL/5D3GwPqQg4zve8gxu6+S4QKEMvjk3+w8ow7X+RL9drO12euT79aAUxdeJLXn6fS41nVB9PquezNXgkf53c9e2tEhoWDWyY87BS0sPP8b+NFtOhoojQb8ub14MKe/QSoYHy0m+W7nqAC+kzv2EcGA/rIcCJkOJ00xZHinSaxoHNFfLtMYr6EsxBmQQL6A7ErXgUf0xNsfCq99HCSgmORrNwf2x7fWo3ofa44gzqUxFafiw4jWmJY1IEKvn6Uaz6dG/nKUtjx/c6ShtytmDWsFPdmdaJs6QoULFUdvxEnyPX9WLoXSmyobknBVp0pbwpINND02Srh6x5H3qql3uMEriN91Wb4PZ5GjdpNqddnE+lbf0uFB4vpMP0UWRp3pVnUXOpUb8SXw85RoJLnsyntd+wjQ74ylH88hzp+Y9kd965t/g9Q7Cncbgwz2xbAQcJZCLOgaJomY4sPwXSJ8V8NRzdiId099YDK3SUd+PJqK/yHeL/vneXXrNzm/9n83KSqquh0OkDl8q8taRfYne39isj9GDPxOR1rQpgzGUF/EHHcXjuXv1zr0TCHPAabfBqh236kVNOZnIoAIi+yfmcAeQtmf/2euBBCfOZkUJLSTFeY0eY75oYUp+8EPzLIJdBbUHAs346++4bwXa3qGPU2ZK7Ul3HVnn18Sggh/ktkivszIdOO4mORY02Ij0PGd0IIIYQZkoAWQgghzJAEtBBCCGGG5CGxz8jKbf6fuglCCCFSiDwkJoQQQpghmeIWQgghzJAEtBBCCGGGJKCFEEIIMyQBLYQQQpghCWghhBDCDElACyGEEGZIAloIIYQwQxLQQgghhBmSgBZCCCHMkHzV52dCvuZTCCE+LxLQnxH5jV4hhPh8yBS3EEIIYYYkoIUQQggzJAEthBBCmCEJaCGEEMIMSUALIYQQZkgC+m2Fb+Rp7zWoWiLvqQHMb1mOdusjX7wUfXkpzau24OejoSS2inhO5dbCNpQYcoC4V9+KO8gPldsx756K6cYC6hSvTLn63zHtzwlUajKPS0/+pGW5H9kaC6ARdv53Otcqh/fIYxiTqM30aD+/fNeQIiXKkL9CI9pMO8RjNZEFtXBO/dafGpV8yF+6No1G7eCuKbESk1fv35t7l8XtKpCvzw5iE10gJcqL5tr6kdTwLkvnrS/VEhfA9gltKeLVid8e/X1UmgKPM61jTfI0nM3Fl/pCCznN7O+bUdy7NPnKfUnLKft5lFhfJbfNKdynKd0+LfAIk7s2pVy1upSt3pR2Mw/zJJHykqrXeHpSguNy9YafqOFXg3wlB7A58Z0tRKIkoJMtipglYwnzv40We4+oRb8QdjzqjWuYArbSr+dK0vQeR28vR5SP1NJ/Jx0ZG09g4/deWPzTkun9mLRiGt/mscPOzhZ7GxtsbWywViDuxDSaDzuDR/606JMqQAth4+ihbM3QnfX+/hz7rSU2a4Yy4dDrZ8+IQ9PosdqFvsu2cnrTCErdWsYfZ15fLln1vqDyYO0klt6xS/KYeP/yVC4t7EnXrc4UyvrSn7kawMq+PVmgy0Vuy79f1kL9GdhhOg+z58YlQaOi2DtxAEsMzVm+059jS9vhvP4nJhyIeec2p2yfpnT7ovGfMoR1GXqxbtMa9qzoScaNQxi7Pzr59VrbJDgu3aoMZP3ijpT4pwNbiFdIQCebFRYVKqM/u5eY04eIS1MRm5xWSS6thR1nXI+phH49jlFVUr84IUReXkOf5nUpXb0uFRr0YMKBQFT1NrOaV6XzlrAXo+yIXUMo0WQeVxMdCbyFqEss6tuCCr51KFvFj1q9l3E6AowXplP9qzHMnfID37RpReVarRi88zEqKvd++5by/ecxpV9XGjesS+Wuy/DfOYvOHdtTvUYjOv1xEyMqtxa1pUzv6Yzt1YnGTRvi02wk6xIfCr0khit/jqRhbT8q1KqDT7MhLL0YCajcXd6D6uOOEofKgx3j+LJaDcrXb0n7WccJSWT6QeeQntw50mJv4UaOAplIpQPFvSpj5gymfjbrN14QZa3Vl9EdS5HOUsEqQ3kq5Yngzr3wV2Y5ojmw1p9sX7elnLsBnUNBus/8le5fWL5WXnLrBdCe7uDnJRa0+SZ/khcjKVGeo3cPFv/yFQUcXv4zt6JAh0nM7+iF28sv6zPRYvw0fvRJl7BNmop7+U6M7laNrNY6rDNWoGq+KG7fe31GKHltTuE+Ten2qSHcuB1FnmIFcFRAcShICc8obt4OIcGf4hvqVRI5LoV4F3LoJJsOnZsFxtuZcGyfGeNda/QOSXRfzHUW9x3KgdLDmdwoKy9OPcaLzOz/K0H1prBz4xrWD8/D7iET2R6ZgepVM3Ng0/74IIrmyI7DpK1UkazvuYfCds1lclgDVmz4E/9N8+iW/jS7LkSBTo927RA3i/Rjwdz5rO6Wng3zNnFbBZ1O4fGxu+TuO4nlvw2h3NWp/Oifn5+m/8qfw4pzfsk6zplAr1N4fPgmOftNZfnSJUwsdpph0/cR8Yb2mK4vp8+kh9SdvpJd61bxW6MIJg9emmBKlehDTB51gLzDlrNr1RwGZbzBkdDXE1qXrhZj+lXAybIIPcc1J68eDBk9yWX/D5GmOJHPpyKFXBQgjqenV7L6ci58ijonPHGrD7h0wxaXJ8tp37gepat9RevJ+whI5KIpWfUCaKHsnDKfyKZdqemW9M59//J0pPPMieurVehc8PR0f+0bihS7zOTJaPV6cCl25K5QnZLpnhWkhZ9g36V0FC3g+tqyyWpzSvdpSrdP54aXVwbO7tjLAyMYnx5k1xUPShVxS3iyfEO9+kSOSyHehQT021BtsPymEw6N2uOQx5LEbyqbODVrELOvRBMaGJ7g/qLp9n52BZakWS0PLAG73DWplfYo20+pZKxcBc+jW9gRrEHMKbYcSoNv5UzJmN58MwsXF6xu7GXN3ss8NqaiSo+RdPWyAUBxLkq14k4ogE1GD9yCnvA0/kRpWbAMZV0UMKQjc1pL8nt74ayAIX0GUocFEvx8uUI+VHLXAVbkK1UEiwtnuZ7kIFrjyZEDXM3vi5+HBaAnfeUqfHHnCIdeumlounmKE1pRqhZxQMFAxipVKPoBpge1oL9oXbw0Xm1WYdfye5q8ejWkhhMaeo/959PSd/5Kdi/tSZY9wxi6KeidnyeIOPIrEx7UYUCd5Exdf/zy3ij6Okv7j+Vctb60z/2OtX2APk3R9qEn79c9qH5tOD4+1SlefRBnSneiRa43lJci9QrxOgnot2GbHWuvDKD3wKp0dpREL8YV3HyHsG7FUEof/Yk+q++9eBhFCw0hJGQ7ffxqU7pabUpX78DsG0bCQ2LQpa1ArdynWbc7iOiTu9ib2gffTO+/e6xLdGN+9+xcWPAD1Xxq0WDwKs5FPDsVKlbWWD/fBp2CghZ/klSwsLKMPzgUdLDBF7QAACAASURBVDoDVpbxC+r06DXip/sUrJ0csX7RP7bYRoYTkeSZViMkJBxrJ6e/17G0x8k6gpDwl5YKDyPCzoEXExSW9jjapPwdfMXFj3mHD3Dmj56kW92LXhueJAwJxQJLCztK1qlBDlsdhlReNK+RjpNHLv3zQ1uJiT7DtElXqd2nPllS4i8vpct7Ay3kJJM7f8+fnv2Z17kQyRncJyql+zSl26c9Ye3g4RyuMJVDuzdydMdMal0ayfdrHpLoM4QpVa8QiZDv4k5xOjJ45sDJxZb+o+rS5LsBTM05g+4FbFCcXHBO5cvIdT9Q+rURoR1VfPPwy5YdbMt4iDSVJ5E5JU66ii2e1TowoVoHTKGXWNi3OwOXF2V56RQoG43o0DBiAAueBWu4nfMbTlIKTs4ORJ8NJip+HWJCCYp2IL/jS0vZ2WEbGUKYCuiB6GCCIlPwGXjTfQ6su4xz5fLksdNjn7kMTSvPocmByxhruP19D1aXnqweGhdDo9GwRAE0VUPRv9uOMV7ew46bV3jcpga/AsSGExJ7kHJtH/Dbr83I/pbFpnR5SYq+xK+9RnCiws/Mb+6J3fuUlcJ9muLti7vI7qPOVOyaBycdYO9J9TJuzD5yCWO9NCS4U56S9QqRCBlBf0A2+VozoZMjv/0wju2BGvpM3pR3OsTKnY8w8uz+1sSBs/AP0QAF9wpVKXJ2PqN2pqJaxQwpsnMuLepGq5lnCFNB75CeHOlsUE3v++TZ34yntrPhvhG0cI7sOAoFCpEtyVk+Bbfi3uQ6t5m1d+KAOG5v2szpbN54v3T/VJ85P/lNR9lyLAyNWK6v28yx9xleAaBy9/AGtlwMQ1OiObHsJwYtPkOQCqaQs6zbc4/MOTKiS7CcA+WqFebs0kUcCVIxPj7Iog2PKFo8N4aXl0tmvfqC37Fp33aO7drC0V1b2D+0PE4Vf2TPnGZk16V0ee/bX8/FcmrWUFbn7MeUZq+G0Nu3OaX7VEvp9hkykCPDXfbtvU00QOx99h66i0d2D/TJrleIlCEj6A/KQNYvBzH8RGv6DVzNisn16TCiJUOGdaDCeCOq4kyxFv1o6/hsyKm4lKFWkXH4B/lQNUPKnGFzVm9M3kHDqVolEp1ej3O+egzumgXdw5QoXcGxSFbuj22P7+UAwpzLM2hcSWzfsIY+S2N+7naHHzp9yRwNdKlK0HtYY3Lo4NbzhWxL073PXjoPaEApG3fyVa+MT2p/4v4xpI0cHvMl3yx/hNFkxKh1Ju9KHakbTGJn/4Kc/WMMU3PkplLubLQe3oN7IwZRaWEwcRZO5KnSk1FfZUJP7EvLOeBWvTc/XxtG3zo+PCYVhRv8yLjKjigJlrPhWLLqdXjDfWJjypanXmda82+YdMmEaoxDO1wBT50l1X74jtBxEzgQp2KKU9lQvTRDLQrTv7cL40ftIFo1EmdSqF1sPhbZW7FycQnWb7nGlftdKLLieeE60jWezPY++d+pzSnapznCU7h92Wg5tAu3f+pFpcUmdJqetCW/Y3TTrAmPjTfWW0ROrCJFKJqmyfdnmI1o9g5vyswc01nUJO1bjaBXbvP/yD83qXJ3SQe+vNoK/yHe//jZ5ZRiurGAL3uEMuiPrhSWs6D4l9BC1tKm1kEabx9Btdc/USZEomSK24xEXl7B9EN5aVo9jewYIYT4j5MxiFkwcmh8Mzqut6Jm/3H4Ov+LHwU1nmZi25FsCEnkPrfFF/SY/QPVnd5v+9T7f9Gt0SWa/DSZjvIhU2HWNAK3jKD51P3ciitM40/dHPGvIlPcn4mPP8UthBDiQ5KZVCGEEMIMSUALIYQQZkgCWgghhDBD8pDYZ2TlNv9P3QQhhBApRB4SE0IIIcyQTHELIYQQZkgCWgghhDBDEtBCCCGEGZKAFkIIIcyQBLQQQghhhiSghRBCCDMkAS2EEEKYIQloIYQQwgxJQAshhBBmSL7q8zMhX/MpUpr8fKkQn5YE9GdETqgipcgFnxCfnkxxCyGEEGZIAloIIYQwQxLQQgghhBmSgBZCCCHMkAS0EEIIYYaeBbQWyLKOZcheqDjZCxUnW8FiZIv/7+zFurI8UPv4LdMC2TK0EYVL1aDPjsiX3lC5tbANJYYcIO6d1v8IYq6wbtMlogDjmclUqTeN06aP2wQAorbQwasEPqOPE/HSy7E7BlKk+6YEr30M79YXsZyb8y31x58gPCUPw7h99PZpx7x7agoWmjjj+en41pvG6cgrzGzbkuGHw/gEf1FCiH+ZZx+zUlz5asZevgIwnmJ4naEoI1Yw8ItP+Cks4xV2+VvRetEyuuR4eaCvI2PjCWw02mDxTusnTVNV0OlQ3qfdgPHqFqat86BUtVzY5G3LivngoH/PQt+VtRsxWyczv94cOnt+uv2pqSr6d+gL47X/MXijJ32XFMb+fXfMyyyKM3hVAfROH3ESySonbfqUoWG/ORxZ2oPi1h+vaiHEv88/nrG1p2tpW28jPium0jytDjByfFwjeqoDmZt2Ot+cKUId9SxHHzzmkVKYXqP7UiujnsjLaxgybAH7noKFbVbqfP8j3bxdX5lT1wg7s5yBI5dzIkxB0btTocMABlaDFX1Gsf7pU6y6f83TPnMYUs4mfh2Vu8t70OhGW/YO0DG4xkKcWuXg+p5LPLj7GDvfAczs6M66BOvPppfLX6/XUz0Tyrlp1BoeStXMJ1geWJel3YPpPDwMvxLBHDx5nZvhuejSpxQXl23g1M1bRH7RlTk/ViKdLpqLf/xMv/nHCTSaUNKU4fsRvanluIcfe//O5UBbvuoYzLiOwfQaoueXP76jIPfZMmEEY7ffw6josMtdh0GDWlDc7jD9E9uO74ri9L6hZChMu5YhzJmwlnrT6pEhwQ5QuT6vDc3vdWT3j8WxePnf/TQG11iAw9fZuLnvAlfvqJTv3okcB5ex8dItbusqMGJqZ8o4KUnua/XVvu3yhA6D4/tCecjWCUMZtfEGkXoXCjfuzchWhXFJsL2R7F20CkP9GRSzAePJCVT5yYZpyzuQV//yv9vjtKwjzS6UorF6jL13HnIvOhddxg2mQaYIDs8ZwuBVV4lQTSjuJek6vC8NMh5haP0F5Fkyi9bpwzgwYyD9V97CkDoHvn4Z2bNMz5CVXUi9PIlyM7/hGNeC2T99AP1X3cHSPQtlyruhkQoAi5xf0jJzc2Zv/oZidVzf+2JQCPH5+sfhg+JallqFr7JuewAqgOkyW/dCpSr5sNIpPD58k5z9prJ86RImFjvNsOn7iDBeZGb/XwmqN4WdG9ewfngedg+ZyPZX5yhjzzBlwFJ0rWazc90qtkwoy6XRo1nxMCPNxvSjRqrcdJi1+KVwfq116NQz7A/yZfzMWfw5rzmGZUvYFuqRcP2SVxOv54EKej3cPsqjSlPZN7spmQ16tOsnCanwIwsXzmdAzv38+MsNao2czO+Lu5Ft5/9Yf19FfbSBERPvU3v6KvZsXsGIXIcZPvswsU4VGdrDG7vCHVg2owV5X/SwysO/xjDgZBEmrlrDznXz6Om4ht4zjhOT1HYEp8BEqKqRvl4XGgUvYPzukLeYWlXQqec5oTZgyqy5LGvtwLLB84luMZrFS2byrc1qFu4JQ3vTvn61b1+kkcaTDeMYdN6bmes3sn9ZBxx+H8rk47EJmxBzik373KlcPu0/Hqg6ncKjA5dI120ivy1ezOiiZ5i+8jyxARsZ/7sDPVf8yZ7Nq1nUyBL//TcwvrSu8fwSBq9yoNeyNWxd0BW3fZu5ggG9knS5xjdst/HCUoasduL75WvYsnQI3g+Pc+v5TLriRHkfT45vP0jIx5jnNp7ll0Z+NJpylAR3qrRgDkxpT5lGMzhpTHJtIcQn9M/ze4oTPr6FubplJ3dUMF7exU5TOWrkfzbBbFnIh0ruOsCKfKWKYHHhLFdv7mdXYEma1fLAErDLXZNaaY+y/VTCM4Hp5kH2RhSnXgU39IBVlsr4Zr3A3lPRyWy+AvqMlK+YCztAccmIh00wj145872xHkVBsSxI1fKpX0wn6FwL41PAFrAiY0Z3Un1RnPw2gE06MrmG8jRYQ5e6LnO3TOKbzAbAjsKFcxD18CFhSZ50Yzi27zRZq1Unjw2gc6asbzFijx3lmil52/FONMDCk7bdS3Ni8nyOJrdrUUDvQZkyWbBEwTljepw8ilAqkwUoznhksCY4KAzj7Tfs60T69plYjvufIHOlKuSwAp1LWYb/voS+hS0TLGW6f4mL+hzkTZO8aWh9wQpUSaMDDGTKlJqgJ0FoNi64Gi+yaeMRrgUrZPbry8RmuV5qj8rj06d5WKgiFd11YJWFRg1KYK28udy4JLc7lsenThFQoAI+bjrQuVLBt/hLMwMKDrlykeb6Ra5+jOcS9B54l3Ti3JyefDPuEE9VQA3Ef1wX2s65iEtJLzJ/qtsvQog3SsZNSQXnstXwHrOYjXcaUn7nPow+/ShkAQEoWDs58uJWmq0ttpHhhIfEEBKynT5+R17cJzZGGSkWEgMv3TnWwkIJt3fC6fkJQueAk4OJsLDI5I/0FCtsXpxNFXQ6jVdXflM9AIq9Q8L7olbWPI8KnV6PldXzNuvR68CkAXH32TF7MnP33yfWYICQO8Rl8E66nVoUwaEmHJ0dXlwVKfaO2IeHPgv1ZGzH+7Ar3pYe2Vvy81I/FmVJ5sSqYon1i47Qobe0wur5WzodmqahhYYkva/dEulbiO+LOOwd7OL7QsHK3v616rWgpwQ7pcI1mQFiYW3999GlKKCB4lyFkZOjmD5/Jq0m30SXpya9BnShdoa/1wsLjcTG0eHFuhap3HBV3lzum7Y7LDQSKwf7F8eQYu+Iw8uB75IKl5A7BH7459NAcaJUjynM0XWn/fzvaR7Xm9YsY/Dy+3i2Gs+8bl6v3FYQQpiL5D01ZF8SP++xTNu8l+g9cVQekCd+RY3o0DCex64WHka4nTMOTjY4p/Jl5LofKP2GJ7kURyccwgMINgF6QA0hKFSPk5Ntit6be1M9L5Z5qxI1AjeM54dDniyYO5pC9grh63tR8q83NcIGZyc9IUFhqDwLaTU0hDAH9/e/z5wciis1ujRlabuprGljz/PMU1DQ1OdXAhoxUTFvdV2gOLkkua+Nl57X8epKNjg5WhAcFBrfFxoRD28RZO1BRqc3pLGiQ9FUnueaFhNDjJbU7Y8XK+Gcvw79f6lD/7hADs/6no5jN+E9IdWLJWxtrYmOiMDIs+M4LvApQVrqd9xulXu/2RATHk5sfHlqcCDBWqrEC/oYFGe8u01mrkUP2v06jN444tV+AnM7Ff44x54Q4p0k8xFWW0r5ehPwxwR+jylH9bx/57rx1HY23DeCFs6RHUehQCFyZPWmvNMhVu58hBEwPj3IxIGz8H9lylafxZuy9kdYs/spJiDq6mY23C5E+S9S9vHWlK9HIzIsHNwy4WGnoIWd538bL6JFRxOlAQYD+shwIhJsrjVeZb7g5pZNXIwG1EB2rj+MXcmSZPtIU4z6zPXpVyuAqQtP8mx2VcE5lTORd27zRAUiL7F5/13eZmCnz5S8fZ2QJUXLFOLWprWcCddQgw4yql03Zl9OOOerOLviFPKUwPiXda6pcHl6h1sRGmihHNx+lKB/uJqIOT6DJr1WcCUasHAmWzZ3LFXTSxchOtLkzYXjKX/2BmsQe5tVa44Q/Q/lJr3dCmny5yPVqV3sfKyC6RGb1x9JcOvDFPSUICdXXD7mtxAojhTvNIkFnSvi22US8yWchTB7yT5F2BWvgo/pCTY+lcj3IlAUHItk5f7Y9vjWakTvc8UZ1KEktvpcdBjREsOiDlTw9aNc8+ncyFeWwo6vnBEs8tF5RDPUee3wqVWPan2PUeTHPtRPncJnrhSvR0f6qs3wezyNGrWbUq/PJtK3/pYKDxbTYfoJtHxlKP94DnX8xrLnxW13hdS1ejPii6N0q1cPn5ptmW5qyvhvC2D5pqpSlCUFW3WmvCkg/uJBwbliM1pq/6Npk/a06L8Rp2L50alvEdHJ3dcJKLjV+J4RhU/SrXZVvOqP50HNQXTzStgT+gye5DJe48KjZ+3RZahGh2oPGNu8FU06juJgxuLkVFTedCvXqmBtmqXaRvtaNShVzY8vf7Omc1df3F+ewi78NQPK32RQ/br4tplOoFc5Mv7TofGG7TYU+JohtZ4w6suaVGg0hBOeZfHE+OzWCBrhly/xMFtucnzse7+KPYXbjWFm2wIJptyFEOZJ0TQteTOapkuM/2o4uhEL6e6pB1TuLunAl1db4T/E+82fSRYf3Mpt/p/hz01GsG3gV8zL9ytLmqT7sF97p6po8Z+BNx4bR6WxLsxe2gbPlK5UC+bPXs1ZW34hs+ukMtuPWX2ex5MQ/y7JPP3EcXvtXP5yrUfDj37ZL/677KjQoh5RK//H0agPV4sasIpvqnRm/o1YUEM5sOkgxrz5yfQBrgiMV1ex4GZF2lc133AWQpiHfz4Fma4wo2VN6i+05Lsf/F75ogshPiyDZzOGV73ImFmnPthXk+rS+tK7rQsr2/tRskoTht6txM/fFSPFv+gr9ipzR++hcN92FPunZ9uEEP95yZ/iFmZNpiRFSpLjSYhPT8bDQgghhBmSgBZCCCHMkAS0EEIIYYY+4e9JipS2cpv/p26CEEKIFCIPiQkhhBBmSKa4hRBCCDMkAS2EEEKYIQloIYQQwgxJQAshhBBmSAJaCCGEMEMS0EIIIYQZkoAWQgghzJAEtBBCCGGGJKCFEEIIMyRf9fmZkK/5FEL8F/yXfgZVAvoz8l86cIUQ/z3/tYGITHELIYQQZkgCWgghhDBDEtBCCCGEGZKAFkIIIcyQBLQQQghhhj5oQGsHR/Fk0Y3E34zaQoeSbZl3T33pRZW7S9qRr9smIt6pRpWAQxvxD1Bfe8d4ZjJV6k3jtOnd1v+nem+t7ku50hWpMv44xrdc+4OKC2D7hLYU8erEb4+0v183BbB1/Hf4lCtHvrL1+HrSfh7Gb3bk5TX0aV6LgsXK8kX19gzZfDeJbYrm2vqR1PAuS+etsQneMd7fyU9t61HEuzxF6/VhzulwNADTA7aM60SVan6Uq1aPOn3/x6lwLdHSTYHHmdaxJnkazuZiUrsk7g7rfu5I+TJlyeNdnZq9f+NE2PPykm7fe29HctsnhBDv6MMEtPEi4RNmEXklHB4fI2zSHKKCEj8Jp6wIDi5byJ5EAtaQty0r5rcir/7d1k+SqqISw+k9B8nc/Xe29CxiPp9dUwNY2bcnC3S5yG2Z4A0C/hxJ3wPZGLpyB6fW/ECe/T8xbHMQmvEC0/vO4kn18ew7tJPNA3Jw4KeJrHtt/6lcWtiTrludKZT1lcNIvcdvgyZyvdI4/PdvZU1rOzb8bw8PVY3Ajb/Q/0RRJv/5F3s2zqE9v/H9nAuvXQBoof4M7DCdh9lz46IkuYHc+WMEQ84XYtzaXZzbPpUGoQvot+ASxje17723I7ntE0KId/dhAlqfCZuqOTHuP0jM4bPoSlXCyv4dzmKm+2wZ9x1VqtfFp0Z9avVcyOFgDbRQDs/uSfXqfpSrVpPyzYez8kYUZ+f1YoT/bVb+0IL+20J5OVKM5+fQqNV8zptU7v32LRUGLmRG/640+7oxFRoOYuWt2NfXV5+wZ2p3qlXzo3yNBjQY9BeXYoC4/fSt1Inh07tTvkp/pk7pwaiDUZyY1ZHG005hNN5j3cj2VKzmR9kqftTut4qL0QAaEedW0K2xHyUq1cCn1RjW3ooDno9a61K6el0qNOjBhAOBvP+gzIoCHSYxv6MXbgn2tJHTh86R3a8JZdwNGFIVo0PjHBzYdoQI1Z4SLX/kx0aeOOgMpClZkRK2Adx68voFlqN3Dxb/8hUFHBIeRqY72/nzSSW6NMyOnWKJR+3BrBpVg7Q6lYBb97ErWISc1oDOlWJFMxFw+y6vjW/1mWgxfho/+qTD4g1baJm3PqMHfo2Xix6dbVYql87Ew7sBqG9oH8bjDKnmx9BjxnfcjuS3Twgh3tWHCWjFFp39I+LsmuBU9DFxuKF767OYysO/xjDgZBEmrlrDznXz6Om4ht4zjhMVsJHxvzvQc8Wf7Nm8mkWNLPHff5vcLfvQPHs66o9axMjKjiR1SaDTKTw6cIl03Sby2+LFjC56hukrL72yvgNBm8by/Z4sDF/xJ7vXzqBl9Bz6Lr6OCQMGLnA4phl/bv2Zrl3G07e4Ld49FrDiu0JE75zO4OOFmPDnX/ivG0vF61MYtyUYzXiBaQOXYdNpAQe2r+HXclcZPHItD2IvMrP/rwTVm8LOjWtYPzwPu4dMZHsSU7/JpnPB09M90RG9oij8fQWjYG1vi/HuXR4YPChbpxRZ4/dXzOUjHNPlp6jHq4eKjnSeOXFN5AgyXrvMzTR6To5oT5VqtfD5eihLL0YCerJ4fYHu2E6OBKkQ+4DdBwL4okQ+rF9tn11m8mS0SnIfPm9DmkJVqeRph4JG9MOjLNvyGO+y+TC8oX3os/PVkAE0zq5/x+1IbvuEEIkynuWXRn40mnKUwJdPc1owB6a0p0yjGZw0q3uFn8aHuwdtyIJ9pxbYt26LtV0SY0HjOcY38cWrQtX4//niN+1s/HRnDMf2nSZrterksQF0zpT1LUbssaNct3LB1XiRTRuPcC1YIbNfXyY2y/VWU8v6ghWokkYHGMiUKTVBT4JeGbHGcnT3MTLV/BIvJwX0qanm50XA3oM8UBUUnSulKhXGOZEetK88hD2L2lHIGrDKhlc+Gx49DCTu1kH2hXtRq5QrOizJ+fUkdk+ojfvd/ewKLEmzWh5YAna5a1Ir7VG2n/pQR6gFBUsW4Ppfy9j3xEhc0BkWrjpOXGwssS/9sRjvb6X/gN0U6tee0q8maJI0osPCiTx1lEe+o9i46Xdm1wphcv+FnDWBbfE29M9/gLbVqlG8YkNGBdWiV+0M73cgqjeZ2bwMeav2Znu2TvSr5v7m8hQncnuXILfzm+L1zdshhHgPeg+8Szpxbk5Pvhl3iKcqoAbiP64LbedcxKWkF5nfeDvyv+GD3S5VMpSMHxUVxtotqdo9aTdtHE3TPT+dqjxY2Ycm5wEtiuBQE47ODi9Otoq9I/bhoYQ7VmHk5Cimz59Jq8k30eWpSa8BXaidKfnts7C2/ntqMsFoMp4WRXBoJOfmfkvZpfEtMMUQmyrNsys+nT1Or06dxjM9OcGCX+ax+XokOguF8Hth2DQFLTSEUFsHXqxmsMHBAMbQEEJCttPH78iLNhmjjBQLiYEPMoGqkKZ2H36+NoKhX/lhSvMFDcsXx22fAw7xmRVxaQU9+qwlTfdJDC7v+hYjRQWDpSWG7D40KpYKgwI56tal1PQlHH5oxG7XQEY8bsSa3V+S0zKIg5O602VkDtYNL4fTuw5HdVnosGQvbYKvsW7cD7T82Zm1P5bE/h2L++ftUMmfXj4AIcQ7U5wo1WMKc3TdaT//e5rH9aY1yxi8/D6ercYzr5uXPNvBJ/8ubgscXFPh7vZ3QMfYxTdJscHZSU9IUBgqz0JaDQ0hzMEdJ0XBOX8d+v9Sh/5xgRye9T0dx27Ce3LelGuaYoOLsz2FOs5jaZM0CUdkcUdYgZJEaMWwZ8pgVjsMZsWykrjqYtkzpA7jAMXRCYfwuwSZAD0QG8ztB0ZcHF1wTuXLyHU/UPpj3dDUp6NKr6lU6QWgcm9pR37LVpu0OjDe/ouefbeSe/A0ehRJ+lZBUqw8PEgXGUroi4seDRUdBl04x/adJ2vV0eSwUQBXvCp7Ydn/OFdN5Sj61kdjNNf8t3AnUw0qZDZg4ZyD2vW9mTj0CNdMJSn0nlfgSW6HXNkL8f4UZ7y7TWauRQ/a/TqM3jji1X4CczsVfveL9c+MGQ8DrPEq8wU3t2x69oCVGsjO9YexK1mSDKdm0KTXCq5EAxbOZMvmjqVqQkOPhT6a8PB3nYN8eX1LipYrwu2N6zgfCRDN1VVj+GHVjX/4GFUcoaHRuHh44KSDqOsbWHU0msioaHSZS1Da8TB/bAvAqMVwbcUAvhyxizAPb8o7HWLlzkcYAePTg0wcOAv/kA/15Lv2//buNLymaw3g+P+cTMZIQigVtIjEEENiSEhkQsScttoKNbYIpa1WcVtDiLQURUNVDe019KpEKw9iCCqKRMw0pLhCxDwkMURysvf9oEhyTiI4OJf39zw+2Fl7rXevs8969157OGRsmUi7kGUkZ6nknP+Dmb9cI7BTIyyVFH4a9xMlh3ytn5yVK+yN2ci+y0Xfvmbu5Edb7QbmRZ8mS7nFschIdlZqQlP70tSoUZ6jcTs4rwO4TfLO/VxzeI2qZgqpCWvZcDRTbzIjv7zltFzdtZiRU6M4dlMF3WX+jIkns/rrVC1qz1bTOboznqPXi26p0O2oYMJfGyH+n2isaRYyk8VDfQn4cCaLJDnnYzJPBOnTULHjZ4T9PZHh3aLRocG6YQ+mD2xA2RJ2BMeE8kHHxdwx02JZwZWhXwRgb2aGh1clFowK4uKQOcx/tzqPdLKjfTX/+m+PIPxEGJ8GdeamomBVow2fT6iGOZeLqKQ0PsHvsPzLAfj8XhGHBkF8NLwtI8PGM6HhD4wMDWZ0aH+af5WNlYM3o8M6U8XCkkFhfRgfOgjv6ToUjQ1N3xvFAOsn21PVS6vo02kqO3MUcnMU1rZvyQSLxoz9fTY9PYLpt/FLevrNJ6eUA74fTOLjJlbkpvxB9IEzHD7YkbWj/qlIY0Xg1+v5tnUKq2fMRjPZh8Z2p4jo2ZuZx3JRdDmoCd44ai1pF76e2W3rMjS8D1+MHUSzr25TqoYnw0N74WxmgTpwPAPCpvNuh7moGhVLB28mjQ2kkkZHzMopfFfLCT+nsuTGfonb57FkKTpycjV0aroIi5p9iVzem5T75V7HbdBEQsKn0rfdHDIVSyq6dOTrsQGUV08SEVxIfL4n+GV8GJrJUYxrfPox/owklwAADcFJREFUtgOyC43vfZzlDFuI4tOUofH7U/j+ecdhgjSqqj6LB5TFUxa5KU5+blII8UJ72cY5masTQgghTJAkaCGEEMIESYIWQgghTJAkaCGEEMIESYIWQgghTJAkaCGEEMIEmfBz0OJRRW6Ke94hCCGEMBJ5DloIIYQwQTLFLYQQQpggSdBCCCGECZIELYQQQpggSdBCCCGECZIELYQQQpggSdBCCCGECZIELYQQQpggSdBCCCGECZIELYQQQpggedXnC0Je8ymEEC8WSdAvkDf8PZ93CEIIIYxEpriFEEIIEyQJWgghhDBBMsX9jKWcu8CeI8mcOJPG1fQMAOzKWVPToQqu9RypXrnSc45QCCGEKZAE/QxFbYoj/mCS3vLL19K5fC2d+INJNHdxJkiuJQshxEtPprifkQVRaw0m54LiDyaxIGrtM4hICCGEKTNCgs4l+/thpB/QFfL3O5xYO53e3QJp4ulPY8/2tB00jdWnsgHI2TmZpo0CGL7xGur9dXTsnhLEO0vSUJTzLOrjTs2Os9iXrwmV6+tG4tKwHWN25sC9co09cHS9+6+eXzAh8xO5omKQmn6EZZOHEeDXGsfGHjRq348P527jdPa9MA4wsUMXJuzR6dXv1LwNrYNH8vXaE9wspP57ojbFkXwq9f7/zWyq4dMmgME932RY97Z0ql+BknnKJ59KJcqYj03lnCd2xgCauIWw9GJhwd4maWUo3dr6ULeZLx49Q1lxPMtgSV3aFiYN6EYT99a4dhvJjwdvYLDWYrX7wI34KXi7BTP7uPIE21F0fblX9xIxuAPOb83n6P3FKpl//crQjl64T97Dg90sixNrJhPo7snQjdl5as7h1Ppp9Aj0xdnNG/fgCSxPNtxXxY3ZuH1q7PiyOb56Mm916oxX+8749g4j8vidJ2tXCPFQT5agU9eR/l0U2ddA+WsV6XPWoSswtuaeXM6Ib07SMuwXEuI2sW/zz4yrc5Cx/1rGvXHTzN6CxO8Wsft2YVHaUjE7juiDeQZJNZ2tG49TqkLeTbDAd9ImkvfsIHnPdnbNexvtyn8xYVOG/mB3J4nZIcOYf6UFXy6M5lBCLOunvY399lDeHbeZSwbHqgf1J8WtZMGguhyfNYi+i5LJNlScu9ecC545l3KoQ4MS10n6629O6srj3qYd7avnv9oQfzCJlHMXCqn1ESjnifz8ExZr6+BkWXgxXdLPfDL3Cp1nrebQrt/4rsUJwsJ+40zBXKmcZenYbznp9w1xOzbyW7/SrF2+jQt65YrX7n1ZB4n4dgc55QrZJY1Qn5oRxxeD5nChphO2mgdFc/ZF0DP0EA71X8HsQYMc++kThm20oeFr+WNSzqzk88lJNAuL5FDCaiJapvB1WBSnH7cPjNynxo5PObOSMTPO03VuJNvWRbI48ALhE1dyStEvV6x2hRDF8mQJ2r4ppRrf4s6ORLL23cbKvylmBWpU0k5ztkJjWjtZ373gbWFPy5AZRE99g+r/lDWr9SZDnLYSvuQ4Bs/DNSVo1rwSW2MOcO+4Xb3+J2tP1qF5dTNDawBaytYKpF+b0iQmHCtQr8rVTQtZdKsrMyb3oGV1a6wsSlKpbju+mD6U2nHz+PlobpGbrrEsRy3PPsye0onri38k5rrhs489R5L1lt1M2kJE9C627j3AmvX7OamUwLacBZpirPvorGgwaCaLBrtRoahP29qVgZNG0MupLGZaa1y8m1LxwlnOFTzgOhPL75f9+PCtmpTWWOLQaRxR4YG8old3MdsFIJsji2cS79GfLvYFe8GI9ZlV473pEXzpUxmLPKU19m2Z8uM4gl4vke8zsHb/mH9Pe4cGZQs0aFmHd8aPZEAjW8y11jT0b8GrF1JJ00tExYvZ6H1q7PjSUkit1IhmVSwAC151deGVtBRSC35Fit2uEKI4nixBW9mhvfE3asAISt05jmJnp5dkzOt7452+jI/H/Ejk9qOcu6WAlR0OVcreHyRV1Rq/oe9RZuVsVhbMCP+wbelN9R0bic8CULnyRyynmrXG5SFbkKsqmJmZFYhLx5HEw9i0ak19q/zltRVb077BOeL3XqQ440qJer74lDvMrqOGp/hPnEnTW6bodNwd28x5xbkWVXPSOHQqS+8s39C6j0xri6Oj/UPvBjR/1Y2u7tUwB5RbZ9gUtR1dc3ecCxz/6E4kc6qSGfvDPqBNu4749JrAsqO3HrtdAN3JFUz6oyGj+zpjVVghI9SnKV0d56pW+vtoVUfqlCm4VEtlx9rYGdi/tJWa0M3HkburKKQm7OVqvUY4FjxWLGbMxu5TY8dn7uiGa/ou1h+7iUoWx+MSyWzSjLoFVix2u0KIYnnCa9Aq2LfHunc3yg5si6HvocbGi/Al0+ld+TRR0z/Cz6sN/oOn8mtS3mtsKmZVuzCq6zXmRGznmoGTUU0FLzq+vpvo+FugXmHjhjS8AlywLOyEi1wykqNZtFFHy1ZOBQYhhfT0m1jb2ugN1mhKY2djTmZ6ZrESNBpr7KxvkZFp+Az63qNU+rTYu/jRt5kFiWu2sjtDf/3C131adOyZFkQd9zcZc6w5Y0NaUDZfB6lkZd7g1oFELgaEsy7mV+Z3TGfWmJ84XPSEQ+GUs/wydT21h/fDrZQRNsHY9RXdGJf//JZhK2z4bIQ/doXui0V5Cn1q1PhAY+vHp4NsWd4rkKY+AXRdVpqBA72KqM847QrxsnvCBG2GWZOWWJbRoq3bCqtC5snM7Rvy9vBQlkbFcGDjD4xqdJpvQr5ifb6kZEG9XkPx2v8dc/frn02iscW3XW3iYxLIuPgH6y540KF+wWP/HDZ/4f/PTWJetAxZhUWvcEa3LDhSaylXrjTXLl/Vb0e9ydXrOsrZlite5yhXuHC1LOVtHq0rNWUc6eRVkZTYGNak3DZ8Q9AzZ47riCiSE9aysEMq40LmcSAn7981mFtaYl7Th+5Ny2OuKUmtrl3xuLKPBL0LpsWhcC56Jv+pNJCPm5fRP1h67vUVJYeUtaH0/OYK780KJajK436VjN2nxo4Pcg7/wJCFJRm9eiOJWzaweZQNCz+ZS6Kh+8SM2K4QL7un/O1RuHxkM5uPPThbtrCtiX+/YHy1xzlytsAAVKYpw0NeY82MFfxXLXg+rsHGsw0uB2P5fd1Wrnj500Bvbi7vTWJ/cmjTz8zs1YByeiO1OQ2auXBjWyx7C9yYplyKY8MRBzzc7IvVOTd2xxCb1ZhWzoYnCu3KWRtcrrGwoqT2DlfTDRyMPGRd41NJP7qFVbvPowAaq/I0eqMTjc/vJuF8/s/IysGByrcyeHBspaKgxfxxpjHVG+zcsoeUzaG08WmLm+9AfjiWzPf9ujJmW2G33T3D+gqlcHFzOAN/Ksln8ybyRo3i3LVWOKP2qdHjU0jdnUBafT/aVrEELKns6UOj6/vYfV7vrjOj9osQL7unfnh7+9BKPv18BquPZ9y9USs3g79W/852jTONHPSTsH3AEPqb/UrEVv3HTDTW7nR0SWLO0uv4t6vzBG9Z0WDj14/+Nmv4dPRSdpy9iU7J5urfm5ny2RxO+g2mZ62HdI0uk5PbFzB07GZeHdAPnzKGi9V0qGJwuXLtABGzVrBOb5B7+LrGomYmsyE6kbOKBm3aFsLHzmFN6h1U9Q6nY2PZa/katSto85QDcyc/2mo3MC/6NFnKLY5FRrKzUhOaFihXrHZVa4K+jeXgtg0kbt1A4uZ5fFDHkUELf2Oyl6XR6zMW5WIMY6df5r1pn+FXMf9+kvXfHURuT+FhDxflLVdUnz5OfcaNT0vFGlUxP7SD+GsKoJK+fxcHtNWoVSC+otoVQjy6p/wt0uLQfSJzuupY+tGbNHH3waV1d4bHWDN45if4Gkpq2moEf9yBkheuGzizLINnu3ootl60f9I7TyzrEBIxi4EVdjA+OACnJt74DlvCuVbjWPqvVoVcN8szhe7emeCZR6g1NIJ5PWoUerDgWs/R4HJN2dr06Psu/RrZFPohFLbuo1AvraJ3Cw8c3UezJiORce1b4thiCEsuKCgX4pgZvorDOijr/REzumYxt3d7GngE8NaCLLpPHoJXSfKVw7wuQ8P7UPKXQTTz6EDv1TYMD+2Fs1n+csVttyjGri879ktc3Dyo+/4KTh/7kU5NPajbfR6/ftUVZ9dWBM45Sup/hlLXtSWtwlYzq4cnjm4dGbvrButGeuPo6s2HG7JI37meLWcSGN+l1f1n7h1bDGP5JYXMxCWM/fcebqhFxZybr1zhfao+Rn2q0eMr3XoY09pfIrxHF7wCu9BpShqBE4fhV1otZrumcQFHiP83GlVV5dvzlBl6xaemZFXa+NfF/K8/WXfipt7ByKO+8jNyU5z83KQQQrxA5F3cz0CQvyfXMjLzvU1MvZ3KhuhUg+Uda1SV93ELIcRLTi4UPSP9gwJp7uL80HLNXZzpHxT4DCISQghhyuQM+hkK8vfEtZ6j/NykEEKIh5IE/YxVr1xJkrAQQoiHkiluIYQQwgRJghZCCCFMkExxv0Aijfkb0kIIIZ4reQ5aCCGEMEEyxS2EEEKYIEnQQgghhAmSBC2EEEKYIEnQQgghhAmSBC2EEEKYIEnQQgghhAmSBC2EEEKYIEnQQgghhAmSBC2EEEKYIHnV5wtCXvMphBAvFknQL5A3/D2fdwhCCCGMRKa4hRBCCBMkCVoIIYQwQZKghRBCCBP0P9orOk4p2V1AAAAAAElFTkSuQmCC;" vertex="1" parent="1">
          <mxGeometry x="440" y="220" width="316.64" height="170" as="geometry" />
        </mxCell>
        <mxCell id="Ndzg5L7rNcoj1idZ39pX-7" style="edgeStyle=orthogonalEdgeStyle;rounded=0;orthogonalLoop=1;jettySize=auto;html=1;exitX=1;exitY=0.5;exitDx=0;exitDy=0;entryX=0;entryY=0.5;entryDx=0;entryDy=0;fontFamily=Helvetica;fontSize=12;fontColor=default;curved=1;strokeColor=#FF0000;strokeWidth=3;" edge="1" parent="1" source="Ndzg5L7rNcoj1idZ39pX-4" target="Ndzg5L7rNcoj1idZ39pX-5">
          <mxGeometry relative="1" as="geometry" />
        </mxCell>
        <mxCell id="Ndzg5L7rNcoj1idZ39pX-4" value="" style="rounded=1;whiteSpace=wrap;html=1;fillColor=none;strokeColor=#FF0000;strokeWidth=4;" vertex="1" parent="1">
          <mxGeometry x="221.5" y="300" width="60" height="30" as="geometry" />
        </mxCell>
        <mxCell id="Ndzg5L7rNcoj1idZ39pX-9" style="edgeStyle=orthogonalEdgeStyle;shape=connector;curved=1;rounded=0;orthogonalLoop=1;jettySize=auto;html=1;exitX=1;exitY=0.5;exitDx=0;exitDy=0;entryX=0;entryY=0.5;entryDx=0;entryDy=0;strokeColor=#FF0000;strokeWidth=3;align=center;verticalAlign=middle;fontFamily=Helvetica;fontSize=12;fontColor=default;labelBackgroundColor=default;endArrow=classic;" edge="1" parent="1" source="Ndzg5L7rNcoj1idZ39pX-5" target="Ndzg5L7rNcoj1idZ39pX-6">
          <mxGeometry relative="1" as="geometry" />
        </mxCell>
        <mxCell id="Ndzg5L7rNcoj1idZ39pX-5" value="" style="rounded=1;whiteSpace=wrap;html=1;strokeColor=#FF0000;strokeWidth=4;align=center;verticalAlign=middle;fontFamily=Helvetica;fontSize=12;fontColor=default;fillColor=none;" vertex="1" parent="1">
          <mxGeometry x="330" y="344.5" width="106" height="45.5" as="geometry" />
        </mxCell>
        <mxCell id="Ndzg5L7rNcoj1idZ39pX-6" value="" style="rounded=1;whiteSpace=wrap;html=1;strokeColor=#FF0000;strokeWidth=4;align=center;verticalAlign=middle;fontFamily=Helvetica;fontSize=12;fontColor=default;fillColor=none;" vertex="1" parent="1">
          <mxGeometry x="480" y="250" width="250" height="140" as="geometry" />
        </mxCell>
      </root>
    </mxGraphModel>
  </diagram>
</mxfile>
